<svg width="80" height="48" xmlns="http://www.w3.org/2000/svg" xmlns:xlink="http://www.w3.org/1999/xlink" overflow="hidden"><defs><clipPath id="clip0"><rect x="600" y="336" width="80" height="48"/></clipPath><clipPath id="clip1"><rect x="600" y="337" width="80" height="46"/></clipPath><clipPath id="clip2"><rect x="600" y="337" width="80" height="46"/></clipPath><clipPath id="clip3"><rect x="600" y="337" width="80" height="46"/></clipPath></defs><g clip-path="url(#clip0)" transform="translate(-600 -336)"><g clip-path="url(#clip1)"><g clip-path="url(#clip2)"><g clip-path="url(#clip3)"><path d="M37.9421 11.6341 40.129 11.6341 40.129 13.821 37.9421 13.821ZM70.4608 14.6739 69.3455 14.6739 69.3455 15.811 70.4608 15.811ZM61.2759 17.9979 62.7193 17.9979 68.8644 10.3657 75.0094 17.9979 76.4528 17.9979 68.8644 8.59438 63.1129 8.59438 69.6735 7.87271 77.8524 17.9979 79.9518 17.9979 65.4528 0 41.0256 0 26.5048 17.9979 29.2384 17.9979 41.0256 3.38964 52.7909 17.9979 61.2759 17.9979ZM69.0612 16.0953 67.924 16.0953 67.924 17.2325 69.0612 17.2325ZM70.4608 16.0953 69.3455 16.0953 69.3455 17.2325 70.4608 17.2325ZM69.0612 14.6739 67.924 14.6739 67.924 15.811 69.0612 15.811ZM40.6319 14.3677 42.8188 14.3677 42.8188 16.5546 40.6319 16.5546ZM37.9421 14.3677 40.129 14.3677 40.129 16.5546 37.9421 16.5546ZM40.6319 11.6341 42.8188 11.6341 42.8188 13.821 40.6319 13.821Z" fill="#8BBE34" fill-rule="nonzero" fill-opacity="1" transform="matrix(1 0 0 1.03162 600.024 337)"/><path d="M32.2344 7.7415C27.642 4.98605 24.0774 4.00196 22.634 5.42342 21.8468 6.23256 21.803 7.71963 22.4154 9.66594L0 11.5685 23.0277 11.3061C23.3338 12.0059 23.7056 12.7713 24.143 13.5804L3.73954 14.3021 25.0396 15.1331C25.3458 15.6579 25.6957 16.1828 26.0456 16.7295L5.83893 17.2981 27.0734 18.2384C27.5764 18.9382 28.1012 19.6599 28.6479 20.3816L0.787271 20.7315 30.1569 22.2841C30.7254 22.9839 31.3159 23.6837 31.9282 24.3835L11.8091 24.3398 33.1747 25.805C33.9183 26.636 34.7055 27.4889 35.5147 28.3199L14.3458 28.473 36.9799 29.8288 38.7294 31.5127 16.8389 31.797 40.3695 33.0435C41.1568 33.7652 41.9441 34.4431 42.7095 35.121L12.7713 34.3119 45.2025 37.1548C46.2959 38.0296 47.3894 38.8168 48.4172 39.5604L19.0039 38.7731 51.5881 41.6379 52.5722 42.2065 25.0833 41.4629 57.3615 44.284C59.0891 44.7651 60.4012 44.6776 61.1447 43.9341 62.5662 42.5126 61.5821 38.9262 58.8266 34.3338 59.8763 36.63 60.095 38.3576 59.2859 39.1667 57.099 41.3536 48.1766 35.9958 39.3854 27.1827 30.5942 18.3697 25.2364 9.49099 27.4233 7.30413 28.2106 6.49499 29.9382 6.71367 32.2344 7.7415Z" fill="#FC5E00" fill-rule="evenodd" fill-opacity="1" transform="matrix(1 0 0 1.03162 600.024 337)"/><text fill="#0A1654" fill-opacity="1" font-family="SPEEDKINGS,SPEEDKINGS_MSFontService,sans-serif" font-style="normal" font-variant="normal" font-weight="400" font-stretch="normal" font-size="100" text-anchor="start" direction="ltr" writing-mode="lr-tb" unicode-bidi="normal" text-decoration="none" transform="matrix(0.218686 0 0 0.225601 650.825 374)">N<tspan fill="#0A1654" fill-opacity="1" font-family="SPEEDKINGS,SPEEDKINGS_MSFontService,sans-serif" font-style="normal" font-variant="normal" font-weight="400" font-stretch="normal" font-size="100" text-anchor="start" direction="ltr" writing-mode="lr-tb" unicode-bidi="normal" text-decoration="none" x="37.5" y="0">o</tspan><tspan fill="#0A1654" fill-opacity="1" font-family="SPEEDKINGS,SPEEDKINGS_MSFontService,sans-serif" font-style="normal" font-variant="normal" font-weight="400" font-stretch="normal" font-size="100" text-anchor="start" direction="ltr" writing-mode="lr-tb" unicode-bidi="normal" text-decoration="none" x="73.9001" y="0">w</tspan></text></g></g></g></g></svg>